<?xml version="1.0" encoding="UTF-8"?>
<svg width="64px" height="64px" viewBox="0 0 64 64" version="1.1" xmlns="http://www.w3.org/2000/svg" xmlns:xlink="http://www.w3.org/1999/xlink">
    <!-- Generator: Sketch 42 (36781) - http://www.bohemiancoding.com/sketch -->
    <title>module-directmail-mailer-engine</title>
    <desc>Created with Sketch.</desc>
    <defs></defs>
    <g id="Page-1" stroke="none" stroke-width="1" fill="none" fill-rule="evenodd">
        <g id="module-directmail-mailer-engine" fill-rule="nonzero">
            <g id="module-tstemplate" fill="#6068BE">
                <polygon id="Shape" points="0 0 64 0 64 64 0 64"></polygon>
            </g>
            <g id="iconmonstr-task-1" transform="translate(14.000000, 14.000000)" fill="#FFFFFF">
                <path d="M33,3 L33,33 L3,33 L3,3 L33,3 Z M36,0 L0,0 L0,36 L36,36 L36,0 Z M30,10.5 L18,10.5 L18,12 L30,12 L30,10.5 Z M30,18 L18,18 L18,19.5 L30,19.5 L30,18 Z M30,25.5 L18,25.5 L18,27 L30,27 L30,25.5 Z M14.226,8.544 L13.161,7.5 L9.3315,11.4105 L7.023,9.2325 L5.976,10.2975 L9.351,13.5 L14.226,8.544 L14.226,8.544 Z M14.226,16.044 L13.161,15 L9.333,18.9105 L7.0245,16.7325 L5.9775,17.796 L9.351,21 L14.226,16.044 L14.226,16.044 Z M14.226,23.544 L13.161,22.5 L9.333,26.4105 L7.0245,24.2325 L5.9775,25.296 L9.351,28.5 L14.226,23.544 L14.226,23.544 Z" id="Shape"></path>
            </g>
        </g>
    </g>
</svg>