<?xml version="1.0" encoding="UTF-8"?>
<svg width="64px" height="64px" viewBox="0 0 64 64" version="1.1" xmlns="http://www.w3.org/2000/svg" xmlns:xlink="http://www.w3.org/1999/xlink">
    <!-- Generator: Sketch 42 (36781) - http://www.bohemiancoding.com/sketch -->
    <title>module-directmail-statistics</title>
    <desc>Created with Sketch.</desc>
    <defs></defs>
    <g id="Page-1" stroke="none" stroke-width="1" fill="none" fill-rule="evenodd">
        <g id="module-directmail-statistics" fill-rule="nonzero">
            <g id="module-tstemplate" fill="#6068BE">
                <polygon id="Shape" points="0 0 64 0 64 64 0 64"></polygon>
            </g>
            <path d="M35.5541818,24.1025455 L37.8663636,21.828 L40.1801818,24.1418182 L37.8663636,26.4163636 L35.5541818,24.1025455 L35.5541818,24.1025455 Z M40.1818182,51.2727273 L50,51.2727273 L50,30 L40.1818182,30 L40.1818182,51.2727273 Z M39.2670909,20.4534545 L41.5809091,22.7672727 L43.9290909,20.46 L41.6136364,18.1445455 L39.2670909,20.4534545 Z M40.2341818,13.9881818 L48.0412727,21.7952727 L50,12 L40.2341818,13.9881818 L40.2341818,13.9881818 Z M27.0909091,51.2727273 L36.9090909,51.2727273 L36.9090909,36.5454545 L27.0909091,36.5454545 L27.0909091,51.2727273 Z M14,51.2727273 L23.8181818,51.2727273 L23.8181818,41.4545455 L14,41.4545455 L14,51.2727273 Z M36.4656364,27.7925455 L34.1518182,25.4787273 L31.7790909,27.8105455 L26.87,22.8981818 L14.0392727,35.6569091 L16.3465455,37.9772727 L26.8634545,27.5209091 L31.7578182,32.4185455 L36.4656364,27.7925455 Z" id="Shape" fill="#FFFFFF"></path>
        </g>
    </g>
</svg>