<?xml version="1.0" encoding="UTF-8"?>
<svg width="64px" height="64px" viewBox="0 0 64 64" version="1.1" xmlns="http://www.w3.org/2000/svg" xmlns:xlink="http://www.w3.org/1999/xlink">
    <!-- Generator: Sketch 42 (36781) - http://www.bohemiancoding.com/sketch -->
    <title>module-directmail-configuration</title>
    <desc>Created with Sketch.</desc>
    <defs></defs>
    <g id="Page-1" stroke="none" stroke-width="1" fill="none" fill-rule="evenodd">
        <g id="module-directmail-configuration" fill-rule="nonzero">
            <g id="module-tstemplate" fill="#6068BE">
                <polygon id="Shape" points="0 0 64 0 64 64 0 64"></polygon>
            </g>
            <path d="M50,34.424 L50,29.576 L45.6965,28.046 C45.3995,27.0155 44.9885,26.033 44.48,25.1135 L46.442,20.987 L43.0145,17.5595 L38.888,19.52 C37.9685,19.0115 36.9845,18.6005 35.9555,18.3035 L34.424,14 L29.576,14 L28.0445,18.3035 C27.0155,18.6005 26.0315,19.01 25.112,19.52 L20.9855,17.558 L17.558,20.9855 L19.52,25.1135 C19.0115,26.033 18.599,27.0155 18.3035,28.046 L14,29.576 L14,34.424 L18.3035,35.954 C18.599,36.9845 19.0115,37.967 19.52,38.8865 L17.558,43.013 L20.9855,46.442 L25.112,44.48 C26.0315,44.9885 27.0155,45.3995 28.0445,45.6965 L29.576,50 L34.424,50 L35.9555,45.6965 C36.986,45.3995 37.9685,44.9885 38.888,44.48 L43.0145,46.442 L46.442,43.013 L44.48,38.8865 C44.9885,37.967 45.3995,36.9845 45.6965,35.954 L50,34.424 Z M32,38 C28.6865,38 26,35.3135 26,32 C26,28.6865 28.6865,26 32,26 C35.3135,26 38,28.6865 38,32 C38,35.3135 35.3135,38 32,38 Z" id="Shape" fill="#FFFFFF"></path>
        </g>
    </g>
</svg>